<?xml version="1.0" encoding="utf-8"?>
<!-- Generator: Adobe Illustrator 18.1.1, SVG Export Plug-In . SVG Version: 6.00 Build 0)  -->
<svg version="1.1" id="Layer_1" xmlns="http://www.w3.org/2000/svg" xmlns:xlink="http://www.w3.org/1999/xlink" x="0px" y="0px"
	 viewBox="0 0 200 200" enable-background="new 0 0 200 200" xml:space="preserve">
<path d="M100,4.3C47.2,4.3,4.3,47.2,4.3,100s42.8,95.7,95.7,95.7s95.7-42.8,95.7-95.7S152.8,4.3,100,4.3z M30.3,130.8
	c-2.5-5.7-4.4-11.8-5.5-18.1h150.2c-1.1,6.4-2.9,12.4-5.5,18.1H30.3z M24.9,87.3c1-6.2,2.8-12.1,5.3-17.7h139.7
	c2.4,5.6,4.2,11.5,5.3,17.7H24.9z M151.8,44.2H48.2C61.8,31.5,80,23.8,100,23.8S138.2,31.5,151.8,44.2z M48.6,156.2h102.8
	c-13.6,12.4-31.6,19.9-51.4,19.9S62.2,168.6,48.6,156.2z"/>
</svg>
